# xmcd CD database file
#
# Track frame offsets:
#	150
#	19822
#	189869
#	190619
#	191369
#	192119
#	192869
#	193619
#	194369
#	195119
#	195869
#	196619
#	208769
#
# Disc length: 2834 seconds
#
# Revision: 0
# Processed by: cddbd v1.4PL0 Copyright (c) Steve Scherf et al.
# Submitted via: Feurio! 1.66 - http://www.feurio.com
#
DISCID=a20b100d
DTITLE=Marla Glen - Friends
DYEAR=2003
DGENRE=Blues
TTITLE0=Friends
TTITLE1=Lay With You
TTITLE2=Mad
TTITLE3=Crazy World
TTITLE4=God
TTITLE5=Hanging Around
TTITLE6=Same Way
TTITLE7=Dreams
TTITLE8=Earthly Power
TTITLE9=I See Blood
TTITLE10=Shut Your Mouth
TTITLE11=Child
TTITLE12=Datentrack
EXTD=
EXTT0=
EXTT1=
EXTT2=
EXTT3=
EXTT4=
EXTT5=
EXTT6=
EXTT7=
EXTT8=
EXTT9=
EXTT10=
EXTT11=
EXTT12=
PLAYORDER=
